<svg width="415.42" height="274.59" version="1.1" viewBox="0 0 415.42 274.59" xmlns="http://www.w3.org/2000/svg">
 <defs>
  <style>.cls-1{fill:#ffb81a;}.cls-2{fill:#3a3a3a;}.cls-3{fill:#f6a713;}</style>
 </defs>
 <title>Datový zdroj 4</title>
 <g transform="translate(117.73)" data-name="Vrstva 2">
  <g data-name="Vrstva 1">
   <g transform="translate(6.7139e-6)" fill="#ffb81a">
    <path class="cls-1" d="m-117.73 222.62a92.9 92.9 0 0 1 15.16-1.08c7.15 0 11.54 0.69 15.31 2.92a11.31 11.31 0 0 1 6.25 10.16c0 4.62-2.69 8.92-8.54 11.08v0.15c5.92 1.62 10.31 6.08 10.31 12.77a13.83 13.83 0 0 1-5.39 11c-3.77 3-10.07 4.69-20.38 4.69a91.59 91.59 0 0 1-12.7-0.77zm11.62 19.85h3.85c6.15 0 9.46-2.54 9.46-6.39s-3-6-8.31-6a31.14 31.14 0 0 0-5 0.31zm0 23a37.93 37.93 0 0 0 4.54 0.15c5.31 0 10-2 10-7.46 0-5.23-4.69-7.31-10.54-7.31h-4z"/>
    <path class="cls-1" d="m-21.837 247.27c0 17-10.31 27.32-25.47 27.32-15.42 0.03-24.42-11.62-24.42-26.39 0-15.58 10-27.16 25.27-27.16 15.92 0 24.62 11.92 24.62 26.23zm-37.47 0.7c0 10.15 4.77 17.31 12.62 17.31s12.46-7.54 12.46-17.66c0-9.31-4.46-17.31-12.54-17.31-7.96 0.04-12.54 7.58-12.54 17.66z"/>
    <path class="cls-1" d="m-12.217 222.62a104.93 104.93 0 0 1 15.85-1.08c9.84 0 16.23 1.77 21.23 5.54 5.39 4 8.77 10.39 8.77 19.54 0 9.93-3.62 16.77-8.62 21-5.46 4.53-13.77 6.69-23.92 6.69a102.29 102.29 0 0 1-13.31-0.77zm11.77 42.31a21.63 21.63 0 0 0 4.08 0.23c10.61 0.08 17.54-5.77 17.54-18.15 0.07-10.77-6.24-16.47-16.31-16.47a24.45 24.45 0 0 0-5.31 0.46z"/>
    <path class="cls-1" d="m52.413 273.74v-21.23l-16.39-30.62h13.39l5.31 12.46c1.61 3.77 2.69 6.54 4 9.92h0.15c1.16-3.23 2.39-6.23 3.93-9.92l5.23-12.46h13.15l-17.08 30.23v21.62z"/>
    <path class="cls-1" d="m87.343 221.89h11.77v42h20.62v9.85h-32.39z"/>
    <path class="cls-1" d="m140.35 221.89v51.85h-11.77v-51.85z"/>
    <path class="cls-1" d="m195.75 271.36a58.14 58.14 0 0 1-17.31 2.92c-9.47 0-16.31-2.39-21.08-7-4.77-4.46-7.39-11.24-7.31-18.85 0.07-17.24 12.61-27.08 29.62-27.08 6.69 0 11.85 1.3 14.38 2.54l-2.46 9.38a28.71 28.71 0 0 0-12.08-2.23c-9.77 0-17.15 5.54-17.15 16.77 0 10.7 6.69 17 16.31 17a15.77 15.77 0 0 0 5.77-0.77v-10.84h-8v-9.16h19.31z"/>
    <path class="cls-1" d="m218.6 221.89v19.92h19.31v-19.92h11.7v51.85h-11.7v-21.7h-19.31v21.7h-11.77v-51.85z"/>
    <path class="cls-1" d="m271.77 231.73h-13.93v-9.84h39.85v9.84h-14.15v42h-11.77z"/>
   </g>
   <path class="cls-3" d="m115.72 99.49a25.77 25.77 0 1 1-0.12-19.85h72.15l-45.97-79.64h-103.59l-45.98 79.64h34.34a65.84 65.84 0 0 1 110.58-37.64l-13.72 14.32a46 46 0 1 0 0.74 65.76l14 14a65.83 65.83 0 0 1-111.6-36.59h-34.51l46.15 79.93h103.59l46.14-79.93z" fill="#f6a713"/>
  </g>
 </g>
</svg>
