<?xml version="1.0" encoding="UTF-8" standalone="no"?>
<!-- Created with Inkscape (http://www.inkscape.org/) -->

<svg
   xmlns:dc="http://purl.org/dc/elements/1.1/"
   xmlns:cc="http://creativecommons.org/ns#"
   xmlns:rdf="http://www.w3.org/1999/02/22-rdf-syntax-ns#"
   xmlns:svg="http://www.w3.org/2000/svg"
   xmlns="http://www.w3.org/2000/svg"
   xmlns:sodipodi="http://sodipodi.sourceforge.net/DTD/sodipodi-0.dtd"
   xmlns:inkscape="http://www.inkscape.org/namespaces/inkscape"
   id="svg3299"
   version="1.1"
   inkscape:version="0.47 r22583"
   width="557.85608"
   height="276.55786"
   xml:space="preserve"
   sodipodi:docname="Modelica.svg"><title
     id="title2850">Official Modelica Logo</title><metadata
     id="metadata3305"><rdf:RDF><cc:Work
         rdf:about=""><dc:format>image/svg+xml</dc:format><dc:type
           rdf:resource="http://purl.org/dc/dcmitype/StillImage" /><dc:title>Official Modelica Logo</dc:title><dc:creator><cc:Agent><dc:title>Modelica Association</dc:title></cc:Agent></dc:creator><dc:rights><cc:Agent><dc:title>Modelica Association</dc:title></cc:Agent></dc:rights><dc:publisher><cc:Agent><dc:title>Modelica Association</dc:title></cc:Agent></dc:publisher></cc:Work></rdf:RDF></metadata><defs
     id="defs3303"><inkscape:perspective
       sodipodi:type="inkscape:persp3d"
       inkscape:vp_x="0 : 0.5 : 1"
       inkscape:vp_y="0 : 1000 : 0"
       inkscape:vp_z="1 : 0.5 : 1"
       inkscape:persp3d-origin="0.5 : 0.33333333 : 1"
       id="perspective3307" /><linearGradient
       x1="0"
       y1="0"
       x2="1"
       y2="0"
       gradientUnits="userSpaceOnUse"
       gradientTransform="matrix(-296.98328,215.9888,-215.9888,-296.98328,558.63184,-419.13916)"
       spreadMethod="pad"
       id="linearGradient3323"><stop
         style="stop-opacity:1;stop-color:#323235"
         offset="0"
         id="stop3325" /><stop
         style="stop-opacity:1;stop-color:#d9dbdd"
         offset="0.6236"
         id="stop3327" /><stop
         style="stop-opacity:1;stop-color:#ffffff"
         offset="1"
         id="stop3329" /></linearGradient><radialGradient
       fx="0"
       fy="0"
       cx="0"
       cy="0"
       r="1"
       gradientUnits="userSpaceOnUse"
       gradientTransform="matrix(21.80627,0,0,21.80627,539.66992,-334.97705)"
       spreadMethod="pad"
       id="radialGradient3345"><stop
         style="stop-opacity:1;stop-color:#e62329"
         offset="0"
         id="stop3347" /><stop
         style="stop-opacity:1;stop-color:#9c2529"
         offset="0.52681"
         id="stop3349" /><stop
         style="stop-opacity:1;stop-color:#9c2529"
         offset="0.52681"
         id="stop3351" /><stop
         style="stop-opacity:1;stop-color:#702527"
         offset="0.70505"
         id="stop3353" /><stop
         style="stop-opacity:1;stop-color:#702527"
         offset="1"
         id="stop3355" /></radialGradient><linearGradient
       x1="0"
       y1="0"
       x2="1"
       y2="0"
       gradientUnits="userSpaceOnUse"
       gradientTransform="matrix(-2.99995,68.01051,-68.01051,-2.99995,419.14307,-321.96338)"
       spreadMethod="pad"
       id="linearGradient3389"><stop
         style="stop-opacity:1;stop-color:#d9dbdd"
         offset="0"
         id="stop3391" /><stop
         style="stop-opacity:1;stop-color:#6f6e72"
         offset="1"
         id="stop3393" /></linearGradient></defs><sodipodi:namedview
     pagecolor="#ffffff"
     bordercolor="#666666"
     borderopacity="1"
     objecttolerance="10"
     gridtolerance="10"
     guidetolerance="10"
     inkscape:pageopacity="0"
     inkscape:pageshadow="2"
     inkscape:window-width="1680"
     inkscape:window-height="1023"
     id="namedview3301"
     showgrid="false"
     inkscape:zoom="1.7949816"
     inkscape:cx="126.43817"
     inkscape:cy="190.48971"
     inkscape:window-x="0"
     inkscape:window-y="0"
     inkscape:window-maximized="1"
     inkscape:current-layer="g3309" /><g
     id="g3309"
     inkscape:groupmode="layer"
     inkscape:label="Modelica-logo-vector-graphics"
     transform="matrix(1.25,0,0,-1.25,-247.49023,510.08082)"><g
       id="g3333"
       transform="scale(1,-1)"><g
         id="g3335"><g
           id="g3341"><g
             id="g3343"><path
               d="m 526.85352,-330.354 c 0,-6.47315 5.24414,-11.72071 11.71289,-11.72071 6.46875,0 11.71289,5.24756 11.71289,11.72071 0,6.47314 -5.24414,11.72021 -11.71289,11.72021 -6.46875,0 -11.71289,-5.24707 -11.71289,-11.72021 z"
               style="fill:url(#radialGradient3345);stroke:none"
               id="path3357" /></g></g></g></g><g
       id="g3397"><g
         transform="scale(1,-1)"
         id="g3311"><g
           id="g3313"><g
             id="g3319"><g
               id="g3321"><path
                 id="path3331"
                 style="fill:url(#linearGradient3323);stroke:none"
                 d="m 320.31885,-266.63672 c 0,0 -57.30322,64.42969 -57.30322,64.42969 0,0 18.36523,15.38867 18.36523,15.38867 0,0 56.41504,-69.25977 56.41504,-69.25977 -6.87061,-1.68457 -12.92725,-5.43457 -17.47705,-10.55859 z m 231.94385,-82.43506 c 0,0 -0.8711,0.2378 -0.8711,0.2378 5.93164,-10.98438 9.72852,-18.86622 12.39551,-26.43799 5.46387,-15.51367 -1.14844,-19.04395 -5.33301,-19.28809 -18.71972,-1.09131 -50.61914,43.96826 -63.87012,61.22803 0,0 -0.9541,0.26074 -0.9541,0.26074 10.19239,-15.45801 37.88575,-59.9458 17.19629,-60.65967 -7.56836,-0.26123 -18.5039,5.9292 -33.78125,25.27491 0,0 -38.08496,50.30322 -38.08496,50.30322 0,0 -1.04101,0.28467 -1.04101,0.28467 0,0 30.0791,-55.51856 30.0791,-55.51856 7.78808,-15.89209 0.64258,-21.00928 -4.42383,-20.79297 -7.74317,0.33057 -17.2041,5.41114 -30.16211,20.71338 0,0 -56.41016,69.25488 -56.41016,69.25488 -2.56884,-5.39111 -6.50244,-10.00146 -11.35009,-13.39648 0,0 56.6831,-63.73291 56.6831,-63.73291 C 437.73047,-398.88379 451.18848,-408 464.96289,-408 c 10.76367,0 16.59277,7.75537 16.40625,17.8877 8.02344,-8.04639 21.39453,-18.5044 32.32031,-17.87598 5.84864,0.33642 14.06739,2.4248 15.30469,15.83545 10.18555,-8.98926 22.25293,-16.7002 31.54688,-15.84717 6.72753,0.61719 11.93554,4.24414 14.11425,12.26807 3.88672,14.31005 -12.76269,36.3081 -22.39257,46.66015 z" /></g></g></g></g><g
         transform="scale(1,-1)"
         id="g3359"><path
           id="path3361"
           style="fill:#231f20;fill-opacity:1;fill-rule:evenodd;stroke:none"
           d="m 492.39258,-267.02734 c -0.01,0.98242 -0.32129,1.55468 -1.55762,1.55468 0,0 -24.875,0 -24.875,0 -1.31933,0 -1.75586,-0.34375 -1.75586,-1.75781 0,0 0,-43.23437 0,-43.23437 0,-1.41504 0.43653,-1.75733 1.75586,-1.75733 0,0 5.54004,0 5.54004,0 1.31934,0 1.75586,0.34229 1.75586,1.75733 0,0 -9.8e-4,36.23242 -9.8e-4,36.23242 0,0 17.5752,0 17.5752,0 1.0625,0 1.55371,0.42969 1.55371,1.21875 0,0 0.009,5.98633 0.009,5.98633 z" /><path
           id="path3363"
           style="fill:#231f20;fill-opacity:1;fill-rule:nonzero;stroke:none"
           d="m 215.20801,-294.07031 c 0,0 7.09179,-16.85254 7.09179,-16.85254 0.37989,-1.14356 0.57032,-1.29932 1.79981,-1.29932 0,0 6.45166,0 6.45166,0 1.31934,0 1.75586,0.3418 1.75586,1.75684 0,0 0.10937,43.46142 0.10937,43.46142 0.0815,1.45118 -0.47216,1.76758 -1.76611,1.76758 0,0 -3.83008,-0.23633 -3.83008,-0.23633 -1.34277,0 -1.66894,-0.37109 -1.74609,-1.74609 0,0 -0.22705,-31.24951 -0.22705,-31.24951 -0.64502,1.8667 -1.65039,4.45849 -2.62207,6.89404 -1.51026,3.78516 -2.97071,7.26953 -2.97071,7.26953 -0.29248,1.01758 -0.48632,1.3711 -1.80712,1.3711 0,0 -4.47803,0 -4.47803,0 -1.33692,0 -1.51563,-0.34375 -1.81397,-1.39063 0,0 -1.45361,-3.46484 -2.96386,-7.25 -0.97168,-2.43555 -1.97754,-5.02734 -2.62207,-6.89404 0,0 -0.22705,31.24951 -0.22705,31.24951 -0.0771,1.375 -0.40333,1.74609 -1.7461,1.74609 0,0 -3.83008,0.23633 -3.83008,0.23633 -1.29345,0 -1.84765,-0.3164 -1.76611,-1.76758 0,0 0.10938,-43.46142 0.10938,-43.46142 0,-1.41504 0.43652,-1.75684 1.75585,-1.75684 0,0 6.45166,0 6.45166,0 1.2295,0 1.41993,0.15576 1.79981,1.29932 0,0 7.09131,16.85254 7.09131,16.85254 z" /><path
           id="path3365"
           style="fill:#231f20;fill-opacity:1;fill-rule:evenodd;stroke:none"
           d="m 278.50732,-313.10596 c 0,0 11.73096,0 11.73096,0 5.47559,0 9.91358,4.44141 9.91358,9.91992 0,0 0,27.83448 0,27.83448 0,5.47851 -4.43799,9.91992 -9.91358,9.91992 0,0 -11.73096,0 -11.73096,0 -5.47509,0 -9.91357,-4.44141 -9.91357,-9.91992 0,0 0,-27.83448 0,-27.83448 0,-5.47851 4.43848,-9.91992 9.91357,-9.91992 z m 13.30079,9.91992 c 0,-1.31738 -0.96143,-2.32666 -2.08057,-2.32666 0,0 -10.65723,0 -10.65723,0 -1.11914,0 -2.08056,1.00928 -2.08056,2.32666 0,0 0,27.83448 0,27.83448 0,1.31836 0.96142,2.32617 2.08056,2.32617 0,0 10.65723,0 10.65723,0 1.11914,0 2.08057,-1.00781 2.08057,-2.32617 0,0 0,-27.83448 0,-27.83448 z" /><path
           id="path3367"
           style="fill:#231f20;fill-opacity:1;fill-rule:nonzero;stroke:none"
           d="m 428.93164,-267.23047 c 0,1.38672 -0.34277,1.75781 -1.68945,1.75781 0,0 -22.10742,0 -22.10742,0 -1.31934,0 -1.75586,-0.34375 -1.75586,-1.75781 0,0 0,-43.23584 0,-43.23584 0,-1.41357 0.43652,-1.75732 1.75586,-1.75732 0,0 22.10742,0 22.10742,0 1.34668,0 1.68945,0.3706 1.68945,1.75732 0,0 0,4.43799 0,4.43799 0,1.40039 -0.35644,1.75732 -1.75586,1.75732 0,0 -14.7539,-4.8e-4 -14.7539,-4.8e-4 0,0 0,10.21875 0,10.21875 0,0 11.79687,0 11.79687,0 1.31934,0 1.75586,0.34375 1.75586,1.75781 0,0 0,4.625 0,4.625 0,1.41211 -0.43652,1.75586 -1.75586,1.75586 0,0 -11.79687,0 -11.79687,0 0,0 0,12.48828 0,12.48828 0,0 14.7539,0 14.7539,0 1.39942,0 1.75586,0.35742 1.75586,1.75781 0,0 0,4.4375 0,4.4375 z" /><path
           id="path3369"
           style="fill:#231f20;fill-opacity:1;fill-rule:nonzero;stroke:none"
           d="m 519.61719,-312.28223 c 0,0 6.77344,0 6.77344,0 0.84667,0 1.5332,0.68702 1.5332,1.53418 0,0 0,43.78321 0,43.78321 0,0.8457 -0.68653,1.5332 -1.5332,1.5332 0,0 -6.77344,0 -6.77344,0 -0.84668,0 -1.53321,-0.6875 -1.53321,-1.5332 0,0 0,-43.78321 0,-43.78321 0,-0.84716 0.68653,-1.53418 1.53321,-1.53418 z" /><path
           id="path3371"
           style="fill:#231f20;fill-opacity:1;fill-rule:evenodd;stroke:none"
           d="m 628.67969,-295.66211 c -0.44336,-1.92139 -0.85156,-4.56543 -1.22266,-6.95459 -0.3164,2.37354 -0.77344,4.99072 -1.26465,6.96045 0,0 -2.84765,11.13672 -2.84765,11.13672 0,0 7.98925,0 7.98925,0 0,0 -2.65429,-11.14258 -2.65429,-11.14258 z m 8.41308,30.18945 c -1.27148,0 -1.49218,-0.39062 -1.77832,-1.67773 0,0 -2.6875,-10.62695 -2.6875,-10.62695 0,0 -10.46582,0 -10.46582,0 0,0 -2.68847,10.62695 -2.68847,10.62695 -0.28516,1.28711 -0.50586,1.67773 -1.7461,1.67773 0,0 -5.89355,-1.11914 -5.89355,-1.11914 -1.10059,-0.24218 -1.34375,-0.93945 -1.14844,-1.78515 0,0 12.08691,-42.58936 12.08691,-42.58936 0.31348,-1.01855 0.51465,-1.25586 1.8086,-1.25586 0,0 5.62793,0 5.62793,0 1.29394,0 1.49512,0.23682 1.80762,1.25537 0,0 12.20019,42.58789 12.20019,42.58789 0.19531,0.84766 -0.0479,1.54493 -1.14844,1.78711 0,0 -5.97461,1.11914 -5.97461,1.11914 z" /><path
           id="path3373"
           style="fill:#231f20;fill-opacity:1;fill-rule:nonzero;stroke:none"
           d="m 585.23047,-313.11182 c 0.91601,0 1.6582,0.74317 1.6582,1.65918 0,0 0,4.2876 0,4.2876 0,0.91602 -0.74219,1.65869 -1.6582,1.65869 0,0 -5.93457,0 -5.93457,0 0,0 -7.71777,-0.006 -7.71777,-0.006 -1.11817,0 -2.08008,1.00928 -2.08008,2.32666 0,0 0,27.83448 0,27.83448 0,1.31836 0.96191,2.32617 2.08105,2.32617 0,0 13.28809,0 13.28809,0 0,0 0.38476,0.008 0.38476,0.008 0.91602,0 1.65528,0.74219 1.65528,1.6582 0,0 0,4.28711 0,4.28711 0,0.91602 -0.74219,1.66016 -1.65821,1.66016 0,0 -5.93457,0 -5.93457,0 0,0 -8.91015,-0.0195 -8.91015,-0.0195 -5.47461,0 -9.91309,-4.44141 -9.91309,-9.91992 0,0 0,-27.83448 0,-27.83448 0,-5.47851 4.43848,-9.91992 9.91406,-9.91992 0,0 8.89063,-0.006 8.89063,-0.006 0,0 5.93457,0 5.93457,0 z" /><path
           id="path3375"
           style="fill:#231f20;fill-opacity:1;fill-rule:evenodd;stroke:none"
           d="m 352.41211,-273.02539 c 1.11914,0 2.08057,-1.00781 2.08057,-2.32617 0,0 0,-27.83448 0,-27.83448 0,-1.31738 -0.96143,-2.32666 -2.08057,-2.32666 0,0 -11.41797,0 -11.41797,0 0,0 0,32.48731 0,32.48731 0,0 11.41797,0 11.41797,0 z m 0.51074,-40.08057 c 5.47559,0 9.91358,4.44141 9.91358,9.91992 0,0 0,27.83448 0,27.83448 0,5.47851 -4.43799,9.91992 -9.91358,9.91992 0,0 -20.15137,0 -20.15137,0 0,0 0,-47.67432 0,-47.67432 0,0 20.15137,0 20.15137,0 z" /><g
           id="g3377"><g
             id="g3379"><g
               id="g3385"><g
                 id="g3387"><path
                   id="path3395"
                   style="fill:url(#linearGradient3389);stroke:none"
                   d="m 465.91797,-265.79102 c -1.14356,0 -1.41113,-0.20312 -1.41113,-1.41211 0,0 0,-43.23486 0,-43.23486 0,-1.20996 0.26757,-1.41211 1.41113,-1.41211 0,0 5.54004,0 5.54004,0 1.02832,0 1.29785,0.27002 1.35156,1.1836 0,0 -5.46289,0.0376 -5.46289,0.0376 -1.49512,0 -1.35938,-0.17578 -1.40723,1.18506 0,0 -0.0215,43.65283 -0.0215,43.65283 z m 24.87012,-8.06836 c 0.94629,0 1.20898,0.33985 1.20898,0.87305 0,0 0,0.34766 0,0.34766 0,0 -18.75391,0 -18.75391,0 0,0 -9.7e-4,-1.22071 -9.7e-4,-1.22071 0,0 17.5459,0 17.5459,0 z m -264.00977,8.06836 c -1.13574,0 -1.3335,-0.19531 -1.40137,-1.41211 0,0 -0.17285,-31.60888 -0.17285,-31.60888 0.49268,-1.25147 0.97412,-2.49805 1.39209,-3.625 0,0 0.18213,36.64599 0.18213,36.64599 z m 3.73096,-46.05908 c 1.08056,0 1.37842,0.18067 1.4082,1.22119 0,0 -5.7373,0 -5.7373,0 -1.38135,0 -1.69678,0.24121 -2.12256,1.52295 0,0 -7.53955,18.02783 -7.53955,18.02783 0,0 -1.08936,-2.58789 -1.08936,-2.58789 0,0 7.15186,-17.10888 7.15186,-17.10888 0.33398,-1.00537 0.3999,-1.0752 1.47705,-1.0752 0,0 6.45166,0 6.45166,0 z m -22.69629,1.22119 c 0,0 -6.63916,0 -6.63916,0 -1.49561,0 -1.32862,-0.1665 -1.32862,1.45313 0,0 -0.10839,43.59961 -0.10839,43.59961 -1.26075,-0.0234 -1.49414,-0.32227 -1.43409,-1.39063 0,0 0.10987,-43.47119 0.10987,-43.47119 0,-1.20996 0.26758,-1.41211 1.41064,-1.41211 0,0 6.45166,0 6.45166,0 1.07764,0 1.14307,0.0698 1.47754,1.0752 0,0 0.0606,0.14599 0.0606,0.14599 z m 82.3833,-2.10498 c 2.11084,0 4.06152,0.68409 5.64404,1.84229 -1.09863,-0.40186 -2.28467,-0.6211 -3.52148,-0.6211 0,0 -13.80274,-0.18798 -13.80274,-0.18798 -4.83642,0.0449 -8.25146,4.44873 -8.18701,8.33105 0,0 0,29.95752 0,29.95752 0,1.61914 0.37549,3.15234 1.04346,4.51563 -1.53906,-1.69922 -2.47608,-3.95508 -2.47608,-6.42774 0,0 0,-27.83447 0,-27.83447 0,-5.28858 4.28418,-9.5752 9.56885,-9.5752 0,0 11.73096,0 11.73096,0 z m 114.89697,46.94287 c -1.14306,0 -1.41113,-0.20312 -1.41113,-1.41211 0,0 0,-43.23632 0,-43.23632 0,-1.20899 0.26758,-1.41211 1.41064,-1.41211 0,0 22.10743,0 22.10743,0 1.02343,0 1.29199,0.16211 1.33691,1.06933 0,0 -21.8999,0.15186 -21.8999,0.15186 -1.49561,0 -1.52246,-0.0952 -1.52246,1.52246 0,0 -0.0215,43.31689 -0.0215,43.31689 z m 22.04053,-7.26171 c 1.08496,0 1.3584,0.1621 1.40332,1.07031 0,0 -15.9917,0.14648 -15.9917,0.14648 0,0 0,-1.21679 0,-1.21679 0,0 14.58838,0 14.58838,0 z m -2.95703,-20.62696 c 1.02637,0 1.34668,0.16211 1.40137,1.07031 0,0 -13.03272,0.14454 -13.03272,0.14454 0,0 0,-1.21485 0,-1.21485 0,0 11.63135,0 11.63135,0 z m 102.17187,-18.23047 c 0.65625,0 1.18848,0.53223 1.18848,1.18897 0,0 -6.50195,0.0322 -6.50195,0.0322 -1.03711,0 -1.21582,-0.082 -1.21582,0.95605 0,0 0,43.98291 0,43.98291 0,0 -0.24414,0 -0.24414,0 -0.65625,0 -1.18848,-0.53125 -1.18848,-1.18945 0,0 0,-43.78174 0,-43.78174 0,-0.65674 0.53223,-1.18897 1.18848,-1.18897 0,0 6.77343,0 6.77343,0 z m 105.35547,1.28125 c 0,0 -5.04394,0 -5.04394,0 -1.44629,0 -1.78125,0.34131 -2.13868,1.50342 0,0 -12.00683,42.30518 -12.00683,42.30518 0,0 -0.66406,-0.084 -0.66406,-0.084 -0.88086,-0.19336 -1.03418,-0.66797 -0.87403,-1.36133 0,0 12.08399,-42.57568 12.08399,-42.57568 0.26855,-0.875 0.33593,-1.00879 1.47754,-1.00879 0,0 5.62793,0 5.62793,0 1.1416,0 1.20898,0.13379 1.47753,1.00879 0,0 0.0606,0.2124 0.0606,0.2124 z m 5.18848,44.83594 c -0.89844,-0.0234 -1.03028,-0.26758 -1.28418,-1.41016 0,0 -2.72949,-10.55273 -2.72949,-10.55273 0,0 0.92773,0 0.92773,0 0,0 3.08594,11.96289 3.08594,11.96289 z m -63.23633,-5.63867 c -0.6875,0 -1.33203,-0.47852 -1.60156,-1.2207 0,0 12.76953,0 12.76953,0 0.96484,0.004 1.49805,0.44336 1.65039,0.98242 0,0 -12.81836,0.23828 -12.81836,0.23828 z m 12.80176,-40.15625 c 0,0 -5.08985,0.0698 -5.08985,0.0698 0,0 -10.69531,0.12061 -10.69531,0.12061 -4.14648,-0.11426 -8.52051,3.19726 -8.44629,8.22119 0,0 0,29.76416 0,29.76416 0,1.61914 0.37598,3.15234 1.04395,4.51563 -1.53906,-1.69922 -2.47559,-3.95508 -2.47559,-6.42774 0,0 0,-27.83447 0,-27.83447 0,-5.28858 4.28321,-9.5752 9.56836,-9.5752 0,0 8.89063,-0.005 8.89063,-0.005 0,0 5.93457,0 5.93457,0 0.6123,0 1.12402,0.58447 1.26953,1.15137 z m -227.93311,0.69629 c -1.09863,-0.40186 -2.28467,-0.6211 -3.52148,-0.6211 0,0 -20.4961,0 -20.4961,0 0,0 0,45.7627 0,45.7627 0,0 -1.43261,0 -1.43261,0 0,0 0,-46.98389 0,-46.98389 0,0 19.80615,0 19.80615,0 2.11084,0 4.06152,0.68409 5.64404,1.84229 z" /></g></g></g></g></g></g></g></svg>