<svg width="24" height="24" version="1.1" viewBox="0 0 24 24" xmlns="http://www.w3.org/2000/svg">
 <g stroke-width=".08095">
  <path d="m22.569 19.653h-19.539v-1.4229l0.8435 0.7309 0.88308-0.7309h7.4759l0.8218 0.73 0.88624-0.73h6.92l0.83216 0.72903 0.87652-0.72903z"/>
  <path d="m6.5804 4.3474h0.10806v1.6881h-0.10806c-0.86948 0-1.4201 0.30186-1.6519 0.90558-0.121 0.31837-0.18151 0.61149-0.18151 0.87669v0.77566h2.5017l-0.61724 1.6872h-1.8843v7.5353l-0.87474 0.70329-0.8133-0.70329v-7.5354h-2.6312l0.6157-1.6872h2.0155v-0.77566c0-1.082 0.39576-1.9974 1.1886-2.7463 0.30379-0.23144 0.62501-0.41001 0.96281-0.53621 0.40621-0.12547 0.86268-0.1878 1.37-0.1878z"/>
  <path d="m10.565 8.5934c0.98054 0 1.8278 0.3833 2.5429 1.1511 0.6956-0.76773 1.5751-1.1713 2.5997-1.1713 2.8679 0 3.3342 2.4086 3.3342 3.3022v5.0486h-1.6881v-4.897c0-0.78197-0.3939-1.34-1.1807-1.6735-0.21751-0.04824-0.39155-0.07293-0.52156-0.07293-0.69099 0-1.2174 0.35318-1.5795 1.0584-0.08768 0.22682-0.13083 0.51176-0.13083 0.8545v5.6232l-0.88389 0.70118-0.80423-0.70118v-5.8836c0-0.61846-0.2665-1.6525-1.6268-1.6525-1.4661 0-1.7641 1.2535-1.7641 1.667v4.9765h-1.6878l0.00766-4.8619c-9.23e-5 -1.8678 0.92597-3.4688 3.3834-3.4688z"/>
  <path d="m20.861 11.464v6.3533l0.83143 0.70062 0.87466-0.70062v-6.3533z"/>
  <path d="m20.863 8.5934h1.706v2.0971h-1.706z"/>
 </g>
</svg>
