<svg width="24" height="24" version="1.1" viewBox="0 0 24 24" xmlns="http://www.w3.org/2000/svg">
 <g transform="matrix(.022189 0 0 .022189 -19.31 -4.5857)">
  <path d="m925.14 747.47c0-34.759 6.7843-67.927 20.437-99.587 13.652-31.66 31.828-58.881 54.694-81.747 22.866-22.866 50.087-41.041 81.747-54.694 31.66-13.652 64.828-20.437 99.588-20.437h458.8c34.759 0 67.927 6.7843 99.588 20.437 31.66 13.652 58.881 31.828 81.747 54.694 22.866 22.866 41.041 50.087 54.694 81.747 13.652 31.66 20.521 64.828 20.521 99.587 0 34.759-6.7844 67.927-20.437 99.587-13.652 31.66-31.828 58.881-54.694 81.747-22.866 22.866-50.087 41.041-81.747 54.694-31.66 13.652-64.828 20.437-99.587 20.437h-458.8c-34.759 0-67.927-6.7843-99.587-20.437-31.66-13.652-58.881-31.828-81.747-54.694-22.866-22.866-41.041-50.087-54.694-81.747s-20.521-64.828-20.521-99.587zm715.35 205.21c27.807 0 54.275-5.4442 79.569-16.249 25.211-10.805 47.072-25.462 65.498-43.889 18.427-18.427 33.084-40.287 43.889-65.498s16.249-51.762 16.249-79.569c0-27.807-5.4442-54.275-16.249-79.569-10.805-25.211-25.462-47.072-43.889-65.498-18.427-18.427-40.287-33.084-65.498-43.889-25.211-10.805-51.762-16.249-79.569-16.249-27.808 0-54.275 5.4442-79.57 16.249-25.211 10.805-47.072 25.462-65.498 43.889-18.427 18.427-33.084 40.287-43.889 65.498s-16.249 51.762-16.249 79.569c0 27.807 5.4442 54.275 16.249 79.569 10.805 25.211 25.462 47.072 43.889 65.498 18.427 18.427 40.287 33.084 65.498 43.889 25.211 10.805 51.762 16.249 79.57 16.249z" stroke-width=".83757"/>
 </g>
</svg>
