<svg width="415.42" height="274.59" viewBox="0 0 415.42 274.59" xmlns="http://www.w3.org/2000/svg"><g data-name="Vrstva 2"><g data-name="Vrstva 1"><path d="M0 222.62a92.9 92.9 0 0115.16-1.08c7.15 0 11.54.69 15.31 2.92a11.31 11.31 0 016.25 10.16c0 4.62-2.69 8.92-8.54 11.08v.15c5.92 1.62 10.31 6.08 10.31 12.77a13.83 13.83 0 01-5.39 11c-3.77 3-10.07 4.69-20.38 4.69a91.59 91.59 0 01-12.7-.77zm11.62 19.85h3.85c6.15 0 9.46-2.54 9.46-6.39s-3-6-8.31-6a31.14 31.14 0 00-5 .31zm0 23a37.93 37.93 0 004.54.15c5.31 0 10-2 10-7.46 0-5.23-4.69-7.31-10.54-7.31h-4zm84.273-18.2c0 17-10.31 27.32-25.47 27.32-15.42.03-24.42-11.62-24.42-26.39 0-15.58 10-27.16 25.27-27.16 15.92 0 24.62 11.92 24.62 26.23zm-37.47.7c0 10.15 4.77 17.31 12.62 17.31s12.46-7.54 12.46-17.66c0-9.31-4.46-17.31-12.54-17.31-7.96.04-12.54 7.58-12.54 17.66zm47.09-25.35a104.93 104.93 0 0115.85-1.08c9.84 0 16.23 1.77 21.23 5.54 5.39 4 8.77 10.39 8.77 19.54 0 9.93-3.62 16.77-8.62 21-5.46 4.53-13.77 6.69-23.92 6.69a102.29 102.29 0 01-13.31-.77zm11.77 42.31a21.63 21.63 0 004.08.23c10.61.08 17.54-5.77 17.54-18.15.07-10.77-6.24-16.47-16.31-16.47a24.45 24.45 0 00-5.31.46zm52.86 8.81v-21.23l-16.39-30.62h13.39l5.31 12.46c1.61 3.77 2.69 6.54 4 9.92h.15c1.16-3.23 2.39-6.23 3.93-9.92l5.23-12.46h13.15l-17.08 30.23v21.62zm34.93-51.85h11.77v42h20.62v9.85h-32.39zm53.007 0v51.85h-11.77v-51.85zm55.4 49.47a58.14 58.14 0 01-17.31 2.92c-9.47 0-16.31-2.39-21.08-7-4.77-4.46-7.39-11.24-7.31-18.85.07-17.24 12.61-27.08 29.62-27.08 6.69 0 11.85 1.3 14.38 2.54l-2.46 9.38a28.71 28.71 0 00-12.08-2.23c-9.77 0-17.15 5.54-17.15 16.77 0 10.7 6.69 17 16.31 17a15.77 15.77 0 005.77-.77V253.2h-8v-9.16h19.31zm22.85-49.47v19.92h19.31v-19.92h11.7v51.85h-11.7v-21.7h-19.31v21.7h-11.77v-51.85zm53.17 9.84h-13.93v-9.84h39.85v9.84h-14.15v42H389.5z" fill="#ffb81a"/><path d="M233.45 99.49a25.77 25.77 0 11-.12-19.85h72.15L259.51 0H155.92l-45.98 79.64h34.34A65.84 65.84 0 01254.86 42l-13.72 14.32a46 46 0 10.74 65.76l14 14a65.83 65.83 0 01-111.6-36.59h-34.51l46.15 79.93h103.59l46.14-79.93z" fill="#f6a713"/></g></g></svg>