<svg xmlns="http://www.w3.org/2000/svg" viewBox="0 0 495 120"><path d="M165.794 31.973h37.304a.5.5 0 01.5.5v10.088a.5.5 0 01-.5.5h-24.621a.5.5 0 00-.5.5v9.92a.5.5 0 00.5.5h18.908a.5.5 0 01.5.5v9.752a.5.5 0 01-.5.5h-18.908a.5.5 0 00-.5.5v11.096a.5.5 0 00.5.5h26.469a.5.5 0 01.5.5V87.5a.5.5 0 01-.5.5h-39.151a.5.5 0 01-.5-.5V32.473a.499.499 0 01.499-.5zm64.61 0h13.332c.21 0 .397.131.47.328l20.13 55.027a.5.5 0 01-.47.672h-12.785a.5.5 0 01-.474-.342l-4.056-12.168a.5.5 0 00-.474-.342h-19.019a.5.5 0 00-.474.342l-4.055 12.168a.5.5 0 01-.474.342h-12.192a.5.5 0 01-.468-.675l20.543-55.027a.493.493 0 01.466-.325zm12.799 32.694l-6.125-19.052a.5.5 0 00-.951-.003l-6.275 19.052a.5.5 0 00.475.656h12.399a.5.5 0 00.477-.653zm30.928 7.007a.495.495 0 01.722-.008 27.694 27.694 0 002.199 2.013 21.572 21.572 0 003.276 2.226 19.144 19.144 0 003.948 1.638c1.428.42 2.953.63 4.578.63.951 0 1.902-.139 2.855-.42a9.212 9.212 0 002.604-1.218 6.544 6.544 0 001.89-1.932c.476-.756.714-1.609.714-2.562 0-2.071-1.008-3.682-3.023-4.83-2.017-1.146-5.208-2.281-9.576-3.401-2.129-.504-4.104-1.231-5.922-2.185-1.821-.951-3.39-2.1-4.704-3.443a14.617 14.617 0 01-3.066-4.62c-.729-1.735-1.092-3.667-1.092-5.796 0-2.352.42-4.564 1.26-6.636.84-2.071 2.113-3.906 3.822-5.502 1.707-1.596 3.835-2.856 6.384-3.78 2.548-.924 5.558-1.386 9.03-1.386 2.855 0 5.376.294 7.56.882 2.185.588 4.045 1.289 5.586 2.1 1.54.812 2.8 1.652 3.78 2.52.774.687 1.4 1.259 1.877 1.717a.5.5 0 01.025.698l-6.669 7.359a.49.49 0 01-.674.059 51.058 51.058 0 00-1.783-1.349c-.812-.588-1.723-1.134-2.73-1.638s-2.114-.924-3.318-1.26-2.478-.504-3.821-.504a8.6 8.6 0 00-2.646.42 9.218 9.218 0 00-2.352 1.134 6.013 6.013 0 00-1.681 1.68 3.707 3.707 0 00-.63 2.058c0 1.904 1.009 3.444 3.024 4.62 2.016 1.176 4.788 2.156 8.316 2.94 2.07.504 4.102 1.19 6.09 2.058a19.974 19.974 0 015.334 3.402c1.566 1.4 2.827 3.122 3.779 5.166.952 2.045 1.429 4.522 1.429 7.434 0 2.521-.561 4.845-1.681 6.973s-2.646 3.977-4.577 5.544c-1.933 1.568-4.2 2.786-6.805 3.653-2.604.868-5.418 1.303-8.441 1.303-2.801 0-5.349-.267-7.645-.799-2.297-.532-4.368-1.23-6.216-2.1-1.848-.867-3.515-1.861-4.998-2.982-1.341-1.011-2.51-2.045-3.507-3.102a.503.503 0 01.004-.686l7.471-8.088zm44.203-39.701h37.304a.5.5 0 01.5.5v10.088a.5.5 0 01-.5.5h-24.62a.5.5 0 00-.5.5v9.92a.5.5 0 00.5.5h18.908a.5.5 0 01.5.5v9.752a.5.5 0 01-.5.5h-18.908a.5.5 0 00-.5.5v11.096a.5.5 0 00.5.5h26.469a.5.5 0 01.5.5V87.5a.5.5 0 01-.5.5h-39.152a.5.5 0 01-.5-.5V32.473a.499.499 0 01.499-.5zm48.299 0h11.684a.5.5 0 01.5.5v43.771a.5.5 0 00.5.5h25.797a.5.5 0 01.5.5V87.5a.5.5 0 01-.5.5h-38.48a.5.5 0 01-.5-.5V32.473a.499.499 0 01.499-.5zm47.936 45.012a.5.5 0 01.699.045c1.515 1.658 3.043 2.88 4.583 3.662 1.651.84 3.625 1.26 5.922 1.26 1.345 0 2.59-.21 3.738-.63a8.355 8.355 0 003.066-1.974c.895-.896 1.596-2.044 2.1-3.444.504-1.399.756-3.079.756-5.04V32.473a.5.5 0 01.5-.5h7.064a.5.5 0 01.5.5v39.063c0 3.249-.477 6.006-1.429 8.274-.952 2.268-2.226 4.115-3.821 5.544-1.597 1.428-3.459 2.465-5.586 3.107-2.129.644-4.368.967-6.721.967-4.145 0-7.532-.729-10.164-2.185-2.483-1.372-4.566-3.095-6.251-5.165a.51.51 0 01.062-.699l4.982-4.394zm40.904-2.254a.49.49 0 01.699.033 40.41 40.41 0 002.317 2.359 18.592 18.592 0 003.318 2.479c1.23.729 2.604 1.316 4.116 1.764 1.512.449 3.163.672 4.956.672 3.695 0 6.579-.84 8.651-2.52 2.071-1.681 3.108-3.948 3.108-6.805 0-3.079-1.176-5.389-3.528-6.93-2.352-1.539-5.741-2.785-10.164-3.738-2.408-.504-4.592-1.203-6.552-2.1-1.961-.895-3.654-2.016-5.082-3.36a14.351 14.351 0 01-3.318-4.662c-.784-1.764-1.176-3.766-1.176-6.006 0-2.071.392-4.032 1.176-5.88.784-1.848 1.96-3.472 3.528-4.872 1.567-1.399 3.528-2.52 5.88-3.36 2.353-.84 5.067-1.26 8.148-1.26 2.743 0 5.109.294 7.098.882 1.987.588 3.682 1.302 5.082 2.142 1.399.84 2.52 1.709 3.36 2.604.665.71 1.206 1.314 1.626 1.813a.5.5 0 01-.042.692l-4.657 4.293a.494.494 0 01-.698-.021 30.246 30.246 0 00-1.186-1.191c-.672-.643-1.526-1.273-2.562-1.89-1.037-.616-2.24-1.134-3.611-1.554-1.373-.42-2.955-.63-4.746-.63-1.793 0-3.333.239-4.62.714-1.289.477-2.353 1.092-3.192 1.848s-1.457 1.61-1.848 2.562a7.436 7.436 0 00-.588 2.856c0 1.4.294 2.591.882 3.57.588.98 1.441 1.848 2.562 2.604 1.12.756 2.506 1.4 4.158 1.932 1.651.533 3.541 1.05 5.67 1.554a43.07 43.07 0 016.09 1.974 18.906 18.906 0 015.334 3.276c1.567 1.373 2.814 3.052 3.738 5.04.924 1.988 1.386 4.41 1.386 7.266 0 2.409-.504 4.62-1.512 6.637a16.36 16.36 0 01-4.158 5.25c-1.764 1.484-3.851 2.633-6.258 3.443-2.408.812-5.013 1.219-7.812 1.219-2.633 0-5.027-.309-7.183-.925-2.156-.615-4.116-1.398-5.88-2.352-1.764-.952-3.305-2.002-4.62-3.15-1.174-1.022-2.157-2.035-2.952-3.036a.5.5 0 01.062-.679l5-4.557zM89.354 15.094H48.885l2.522-13.462A2 2 0 0153.371 0h31.482c.96 0 1.785.684 1.963 1.629l2.538 13.465zm15.854 83.864h-20.25l3.893 19.434A1.999 1.999 0 0090.81 120h15.93a2 2 0 001.963-2.371l-3.495-18.671zm-75.527 18.673A2 2 0 0031.645 120h15.933c.952 0 1.772-.673 1.959-1.608l3.88-19.434h-20.25l-3.486 18.673zm99.486-91.572v61.875c0 3.314-2.683 6-5.993 6H15.16a5.997 5.997 0 01-5.994-6V26.059c0-3.314 2.683-6 5.994-6h108.013a5.997 5.997 0 015.994 6zM70.056 60.422c0-9.228-7.48-16.708-16.708-16.708-9.228 0-16.708 7.48-16.708 16.708 0 9.228 7.48 16.708 16.708 16.708 9.228 0 16.708-7.481 16.708-16.708zm33.637 16.617l-25.057-43.4-7.939 13.751a21.596 21.596 0 014.359 13.032c0 6.663-3.02 12.632-7.761 16.617h36.398z" fill="#405261"/></svg>