<svg viewBox="0 0 655.42 179.42" xmlns="http://www.w3.org/2000/svg"><g data-name="Vrstva 2"><g data-name="Vrstva 1"><path d="M240 30a92.9 92.9 0 0115.16-1.08c7.15 0 11.54.69 15.31 2.92A11.31 11.31 0 01276.72 42c0 4.62-2.69 8.92-8.54 11.08v.15c5.92 1.62 10.31 6.08 10.31 12.77a13.83 13.83 0 01-5.39 11c-3.77 3-10.07 4.69-20.38 4.69a91.59 91.59 0 01-12.7-.77zm11.62 19.85h3.85c6.15 0 9.46-2.54 9.46-6.39s-3-6-8.31-6a32.41 32.41 0 00-5 .31zm0 23a37.93 37.93 0 004.54.15c5.31 0 10-2 10-7.46 0-5.23-4.69-7.31-10.54-7.31h-4zm84.27-18.2c0 17-10.31 27.32-25.47 27.32C295 82 286 70.35 286 55.58c0-15.58 10-27.16 25.27-27.16 15.92 0 24.62 11.92 24.62 26.23zm-37.47.7c0 10.15 4.77 17.31 12.62 17.31S323.5 65.12 323.5 55c0-9.31-4.46-17.31-12.54-17.31-7.96.04-12.54 7.58-12.54 17.66zM345.51 30a104.93 104.93 0 0115.85-1.08c9.84 0 16.23 1.77 21.23 5.54 5.39 4 8.77 10.39 8.77 19.54 0 9.93-3.62 16.77-8.62 21-5.46 4.53-13.77 6.69-23.92 6.69a102.29 102.29 0 01-13.31-.77zm11.77 42.31a21.63 21.63 0 004.08.23c10.61.08 17.54-5.77 17.54-18.15.07-10.77-6.24-16.47-16.31-16.47a24.45 24.45 0 00-5.31.46zm52.86 8.81V59.89l-16.39-30.62h13.39l5.31 12.46c1.61 3.77 2.69 6.54 4 9.92h.15c1.16-3.23 2.39-6.23 3.93-9.92l5.23-12.46h13.15L421.83 59.5v21.62zm34.93-51.85h11.77v42h20.62v9.85h-32.39zm53.01 0v51.85h-11.77V29.27zm55.4 49.47a58.14 58.14 0 01-17.31 2.92c-9.47 0-16.31-2.39-21.08-7-4.77-4.46-7.39-11.24-7.31-18.85.07-17.23 12.61-27.08 29.62-27.08 6.69 0 11.85 1.31 14.38 2.54l-2.46 9.38a28.71 28.71 0 00-12.08-2.23c-9.77 0-17.15 5.54-17.15 16.77 0 10.7 6.69 17 16.31 17a15.77 15.77 0 005.77-.77V60.58h-8v-9.16h19.31zm22.85-49.47v19.92h19.31V29.27h11.7v51.85h-11.7v-21.7h-19.31v21.7h-11.77V29.27zm53.17 9.84h-13.93v-9.84h39.85v9.84h-14.15v42H629.5z" fill="#ffb81a"/><path d="M268.12 151.93c-1.79.9-5.83 1.86-11.09 1.86-14.94 0-22.63-9.3-22.63-21.61 0-14.74 10.51-23 23.59-23 5.07 0 8.92 1 10.65 1.92l-2 7.76a21.21 21.21 0 00-8.21-1.6c-7.76 0-13.78 4.68-13.78 14.3 0 8.65 5.13 14.1 13.85 14.1a24.36 24.36 0 008.14-1.41zM325 131.09c0 14.17-8.6 22.77-21.23 22.77-12.82 0-20.32-9.69-20.32-22 0-13 8.27-22.63 21-22.63 13.3 0 20.55 9.94 20.55 21.86zm-31.23.58c0 8.47 4 14.43 10.52 14.43s10.38-6.28 10.38-14.68c0-7.76-3.72-14.43-10.45-14.43s-10.45 6.28-10.45 14.68zm87.01 4.94c-.19-5.19-.39-11.48-.39-17.76h-.19c-1.34 5.51-3.14 11.67-4.81 16.73l-5.26 16.87h-7.63l-4.61-16.74c-1.41-5.06-2.89-11.22-3.91-16.86h-.13c-.26 5.83-.45 12.5-.77 17.89l-.77 16.41h-9l2.69-43.21h13l4.23 14.42c1.35 5 2.7 10.39 3.66 15.46h.19c1.22-5 2.69-10.71 4.11-15.52l4.61-14.36h12.8l2.4 43.21h-9.55zm30.52-26.1a80.44 80.44 0 0113.21-.89c6 0 10.32 1.15 13.2 3.46a12.63 12.63 0 014.62 10 13.84 13.84 0 01-4 10.26c-3.34 3.14-8.28 4.55-14.05 4.55a24.35 24.35 0 01-3.33-.19v15.45h-9.65zm9.7 19.62a14.43 14.43 0 003.27.26c5.19 0 8.4-2.63 8.4-7 0-4-2.76-6.35-7.63-6.35a16.87 16.87 0 00-4 .38zm79.93.96c0 14.17-8.59 22.77-21.22 22.77-12.82 0-20.32-9.69-20.32-22 0-13 8.27-22.63 21-22.63 13.3 0 20.54 9.94 20.54 21.86zm-31.22.58c0 8.47 4 14.43 10.51 14.43s10.39-6.28 10.39-14.68c0-7.76-3.72-14.43-10.45-14.43s-10.45 6.28-10.45 14.68zm50.78 11.41a24.9 24.9 0 0010.84 2.7c4.48 0 6.86-1.86 6.86-4.68s-2.05-4.23-7.25-6.09c-7.18-2.5-11.86-6.48-11.86-12.76 0-7.38 6.16-13 16.35-13a26.58 26.58 0 0111 2.18l-2.18 7.89a20.43 20.43 0 00-9-2.06c-4.23 0-6.29 1.93-6.29 4.17 0 2.76 2.44 4 8 6.09 7.63 2.83 11.22 6.8 11.22 12.89 0 7.25-5.58 13.4-17.44 13.4-4.94 0-9.81-1.28-12.25-2.63zm72.84-8.2h-15.9v10.26h17.76v8h-27.57v-43.2h26.67v8h-16.86v9h15.9zm21.35-24.37a86.38 86.38 0 0113-.89c6.41 0 10.9 1 14 3.39a11 11 0 014 9A11.47 11.47 0 01638 132.7v.19c3 1.22 4.68 4.1 5.77 8.08 1.35 4.87 2.69 10.51 3.53 12.18h-10c-.7-1.22-1.73-4.74-3-10.07s-3-6.86-7-6.92h-2.95v17h-9.68zm9.68 18.6h3.85c4.87 0 7.76-2.44 7.76-6.22 0-4-2.7-6-7.18-6a24.3 24.3 0 00-4.43.32z" fill="#fff"/><path d="M123.68 99.49a25.77 25.77 0 11-.12-19.85h72.15L149.74 0H46.15L.17 79.64h34.34A65.84 65.84 0 01145.09 42l-13.72 14.32a46 46 0 10.74 65.76l14 14a65.83 65.83 0 01-111.6-36.59H0l46.15 79.93h103.59l46.14-79.93z" fill="#f6a713"/></g></g></svg>