<svg xmlns="http://www.w3.org/2000/svg" width="557.856" height="276.558"><defs><linearGradient x1="0" y1="0" x2="1" y2="0" gradientUnits="userSpaceOnUse" gradientTransform="rotate(143.973 347.49 -118.696) scale(367.2196)" spreadMethod="pad" id="b"><stop offset="0" stop-color="#323235"/><stop offset=".624" stop-color="#d9dbdd"/><stop offset="1" stop-color="#fff"/></linearGradient><linearGradient x1="0" y1="0" x2="1" y2="0" gradientUnits="userSpaceOnUse" gradientTransform="rotate(92.526 363.609 39.55) scale(68.07664)" spreadMethod="pad" id="c"><stop offset="0" stop-color="#d9dbdd"/><stop offset="1" stop-color="#6f6e72"/></linearGradient><radialGradient fx="0" fy="0" cx="0" cy="0" r="1" gradientUnits="userSpaceOnUse" gradientTransform="translate(539.67 -334.977) scale(21.80627)" spreadMethod="pad" id="a"><stop offset="0" stop-color="#e62329"/><stop offset=".527" stop-color="#9c2529"/><stop offset=".527" stop-color="#9c2529"/><stop offset=".705" stop-color="#702527"/><stop offset="1" stop-color="#702527"/></radialGradient></defs><path d="M526.854-330.354c0-6.473 5.244-11.72 11.712-11.72 6.47 0 11.713 5.247 11.713 11.72 0 6.473-5.244 11.72-11.713 11.72-6.468 0-11.712-5.247-11.712-11.72z" fill="url(#a)" transform="matrix(1.25 0 0 1.25 -247.49 510.08)"/><path d="M320.319-266.637l-57.303 64.43 18.365 15.389 56.415-69.26a34.312 34.312 0 01-17.477-10.559zm231.944-82.435l-.871.238c5.931-10.984 9.728-18.866 12.395-26.438 5.464-15.514-1.148-19.044-5.333-19.288-18.72-1.091-50.619 43.968-63.87 61.228l-.954.26c10.192-15.457 37.886-59.945 17.196-60.659-7.568-.261-18.504 5.93-33.781 25.275l-38.085 50.303-1.041.285 30.08-55.519c7.787-15.892.642-21.009-4.425-20.793-7.743.33-17.204 5.411-30.162 20.714l-56.41 69.255a34.494 34.494 0 00-11.35-13.397l56.683-63.733C437.73-398.884 451.188-408 464.963-408c10.764 0 16.593 7.755 16.406 17.888 8.024-8.047 21.395-18.505 32.32-17.876 5.85.336 14.068 2.425 15.305 15.835 10.186-8.99 22.253-16.7 31.547-15.847 6.728.617 11.936 4.244 14.114 12.268 3.887 14.31-12.762 36.308-22.392 46.66z" fill="url(#b)" transform="matrix(1.25 0 0 1.25 -247.49 510.08)"/><path d="M368 176.297c-.012 1.228-.401 1.943-1.947 1.943H334.96c-1.65 0-2.195-.43-2.195-2.197V122c0-1.769.546-2.197 2.195-2.197h6.925c1.649 0 2.195.428 2.195 2.197l-.002 45.29h21.97c1.327 0 1.942.537 1.942 1.524l.01 7.483z" fill="#231f20" fill-rule="evenodd"/><path d="M21.52 142.493l8.865-21.066c.474-1.43.712-1.624 2.25-1.624h8.064c1.649 0 2.195.427 2.195 2.196l.136 54.327c.102 1.814-.59 2.21-2.207 2.21l-4.788-.296c-1.678 0-2.086-.464-2.182-2.183l-.284-39.062c-.807 2.334-2.063 5.574-3.278 8.618-1.888 4.731-3.713 9.087-3.713 9.087-.366 1.272-.608 1.714-2.26 1.714h-5.597c-1.67 0-1.894-.43-2.267-1.738 0 0-1.817-4.332-3.705-9.063-1.215-3.044-2.472-6.284-3.278-8.618l-.283 39.062c-.097 1.72-.505 2.183-2.183 2.183l-4.788.295c-1.616 0-2.31-.395-2.207-2.21L.146 122c0-1.769.546-2.196 2.195-2.196h8.065c1.537 0 1.775.195 2.25 1.624l8.864 21.066z" fill="#231f20"/><path d="M100.644 118.698h14.664c6.844 0 12.392 5.552 12.392 12.4v34.793c0 6.849-5.548 12.4-12.392 12.4h-14.664c-6.844 0-12.392-5.551-12.392-12.4v-34.793c0-6.848 5.548-12.4 12.392-12.4zm16.626 12.4c0-1.646-1.202-2.908-2.6-2.908h-13.322c-1.4 0-2.601 1.262-2.601 2.908v34.793c0 1.648 1.202 2.908 2.6 2.908h13.322c1.4 0 2.6-1.26 2.6-2.908v-34.793z" fill="#231f20" fill-rule="evenodd"/><path d="M288.674 176.043c0 1.733-.428 2.197-2.111 2.197h-27.635c-1.649 0-2.195-.43-2.195-2.197v-54.045c0-1.767.546-2.197 2.195-2.197h27.635c1.683 0 2.111.464 2.111 2.197v5.547c0 1.75-.445 2.197-2.195 2.197h-18.442v12.773h14.746c1.65 0 2.195.43 2.195 2.197v5.781c0 1.766-.546 2.195-2.195 2.195h-14.746v15.61h18.442c1.75 0 2.195.447 2.195 2.198v5.547zm113.357-56.315h8.467c1.058 0 1.917.859 1.917 1.918v54.729a1.917 1.917 0 01-1.917 1.916h-8.467a1.917 1.917 0 01-1.916-1.916v-54.73c0-1.058.858-1.917 1.916-1.917z" fill="#231f20"/><path d="M538.36 140.503c-.555-2.402-1.065-5.707-1.529-8.693-.395 2.967-.967 6.238-1.58 8.7l-3.56 13.921h9.986l-3.318-13.928zm10.516 37.737c-1.59 0-1.865-.488-2.223-2.097l-3.36-13.284h-13.082l-3.36 13.284c-.357 1.609-.633 2.097-2.183 2.097l-7.367-1.399c-1.376-.303-1.68-1.174-1.436-2.231l15.11-53.237c.391-1.273.642-1.57 2.26-1.57h7.035c1.617 0 1.869.296 2.26 1.57l15.25 53.234c.244 1.06-.06 1.931-1.436 2.234l-7.468 1.399z" fill="#231f20" fill-rule="evenodd"/><path d="M484.048 118.691c1.145 0 2.073.929 2.073 2.074v5.36a2.073 2.073 0 01-2.073 2.073h-7.418l-9.648-.008c-1.397 0-2.6 1.262-2.6 2.909v34.793c0 1.648 1.203 2.908 2.602 2.908h16.61l.48.01a2.07 2.07 0 012.07 2.072v5.36a2.074 2.074 0 01-2.073 2.074h-7.418l-11.138-.024c-6.843 0-12.391-5.552-12.391-12.4V131.1c0-6.848 5.548-12.4 12.392-12.4l11.114-.007h7.418z" fill="#231f20"/><path d="M193.025 168.8c1.399 0 2.6-1.26 2.6-2.909v-34.793c0-1.646-1.201-2.908-2.6-2.908h-14.273v40.61h14.273zm.638-50.102c6.845 0 12.392 5.552 12.392 12.4v34.793c0 6.849-5.547 12.4-12.392 12.4h-25.189v-59.593h25.19z" fill="#231f20" fill-rule="evenodd"/><path d="M465.918-265.791c-1.144 0-1.411-.203-1.411-1.412v-43.235c0-1.21.267-1.412 1.411-1.412h5.54c1.028 0 1.298.27 1.352 1.184l-5.463.037c-1.495 0-1.36-.176-1.408 1.185l-.021 43.653zm24.87-8.068c.946 0 1.21.34 1.21.873v.347h-18.755v-1.22h17.545zm-264.01 8.068c-1.135 0-1.333-.195-1.401-1.412l-.173-31.609c.493-1.251.974-2.498 1.392-3.625l.182 36.646zm3.731-46.06c1.08 0 1.379.182 1.408 1.222h-5.737c-1.381 0-1.697.241-2.122 1.523l-7.54 18.028-1.09-2.588 7.153-17.109c.334-1.005.4-1.075 1.477-1.075h6.451zm-22.696 1.222h-6.64c-1.495 0-1.328-.166-1.328 1.453l-.108 43.6c-1.26-.024-1.494-.322-1.434-1.39l.11-43.472c0-1.21.267-1.412 1.41-1.412h6.452c1.078 0 1.143.07 1.477 1.075l.061.146zm82.383-2.105c2.111 0 4.062.684 5.644 1.842a10.23 10.23 0 00-3.521-.62l-13.803-.189c-4.836.045-8.251 4.449-8.187 8.331v29.958c0 1.619.376 3.152 1.044 4.516a9.545 9.545 0 01-2.477-6.428v-27.835c0-5.288 4.285-9.575 9.57-9.575h11.73zm114.897 46.943c-1.143 0-1.41-.203-1.41-1.412v-43.236c0-1.21.267-1.413 1.41-1.413H427.2c1.024 0 1.292.163 1.337 1.07l-21.9.152c-1.495 0-1.522-.096-1.522 1.522l-.022 43.317zm22.04-7.262c1.086 0 1.36.162 1.404 1.07l-15.992.147v-1.217h14.589zm-2.956-20.627c1.026 0 1.346.162 1.401 1.07l-13.033.145v-1.215h11.632zm102.172-18.23c.656 0 1.188.532 1.188 1.189l-6.502.032c-1.037 0-1.216-.082-1.216.956v43.983h-.244a1.188 1.188 0 01-1.188-1.19v-43.781c0-.657.532-1.19 1.188-1.19h6.774zm105.355 1.281h-5.044c-1.446 0-1.781.341-2.139 1.504l-12.006 42.305-.664-.084c-.881-.194-1.035-.668-.874-1.362l12.084-42.575c.268-.875.335-1.01 1.477-1.01h5.628c1.142 0 1.209.135 1.478 1.01l.06.212zm5.189 44.836c-.899-.023-1.03-.268-1.285-1.41l-2.73-10.553h.929l3.086 11.963zm-63.237-5.639c-.687 0-1.332-.478-1.601-1.22h12.77c.964.004 1.497.443 1.65.982l-12.819.238zm12.802-40.156l-5.09.07-10.695.12c-4.147-.114-8.52 3.198-8.446 8.222v29.764c0 1.619.376 3.152 1.044 4.515a9.544 9.544 0 01-2.476-6.427v-27.835c0-5.288 4.283-9.575 9.568-9.575l8.89-.005h5.935c.613 0 1.125.585 1.27 1.151zm-227.933.696a10.23 10.23 0 00-3.522-.62h-20.496v45.762h-1.432v-46.984h19.806c2.11 0 4.061.684 5.644 1.842z" fill="url(#c)" transform="matrix(1.25 0 0 1.25 -247.49 510.08)"/></svg>