<svg version="1" xmlns="http://www.w3.org/2000/svg" width="933.333" height="933.333" viewBox="0 0 700 700"><path d="M155.1 46.5c-5.4 9.3-15.6 26.9-22.6 39-7 12.1-13.6 23.5-14.6 25.3-6.6 11.5-10.5 18.2-17.4 30.2-4.3 7.4-10 17.3-12.7 22-2.6 4.7-5.3 9.2-5.8 10-.5.8-2.6 4.4-4.6 8-2.1 3.6-20.1 34.8-40.1 69.4C17.3 285 1 313.5 1 313.7c0 .2 27.6.2 61.2.1l61.3-.3 1.6-8.5c4.6-24.5 15.2-52.8 26.8-72 1.1-1.9 2.4-4.2 2.8-5 2.2-5 16.9-25.1 24.3-33.4 40.9-46 97.8-74.6 157.5-79.3 15.1-1.2 39.9-.6 50.5 1.2l6.3.9c41.8 6.3 89.2 28.9 119.5 57.1 4.9 4.6 5.4 5.4 4.2 6.7-1.5 1.4-31.7 33-41.9 43.5-2.7 2.9-5.3 5.3-5.7 5.3-.3 0-3.4-2.4-6.7-5.3-3.3-2.8-7-5.9-8.3-6.7-13.2-8.9-18-11.8-27.7-16.4-22.5-10.9-43.3-15.8-68.2-16-14.5-.1-19.8.2-30.5 2-5.5.8-27.4 6.6-28.5 7.4-.5.4-2.1 1.1-3.5 1.5-2.5.7-19.3 8.9-23.9 11.6-11.3 6.6-27.3 19.6-37.2 30.3-30.7 33.1-46.8 80.3-42.7 125.1 6.4 69.9 55.5 127.9 122.8 145 22.3 5.7 49.1 6.7 71.1 2.5 8.8-1.7 22.8-5.6 28.4-7.9 7.6-3.2 20.9-9.8 26-12.8 5.4-3.3 20.2-13.7 21.5-15.2.3-.3 2.7-2.6 5.3-5.1l4.7-4.5 25 25 25 25-4.3 4.3c-6.3 6.5-34.2 28.2-36.2 28.2-.2 0-2.8 1.5-5.7 3.4-17 10.8-53.2 25-71.3 28-1.6.2-5.5.9-8.5 1.5-31.6 6.2-71.8 4-105.5-5.8-85.7-24.7-150.3-96.6-166.3-185.1l-.8-4.5-61.6-.3L.1 385l5 8.7c2.8 4.9 6.1 10.6 7.4 12.8 3.1 5.6 33.1 57.5 48.4 84 7.1 12.1 13.9 24 15.3 26.5 1.4 2.5 8.3 14.4 15.3 26.5 7.1 12.1 13.9 23.8 15.1 26 1.3 2.2 2.8 4.9 3.4 6 .6 1.1 2 3.6 3.2 5.5 1.2 1.9 3.1 5.3 4.3 7.5 1.3 2.2 6.2 10.7 11 19 4.8 8.2 9.9 17 11.3 19.5 1.4 2.5 4.2 7.4 6.4 10.9 2.1 3.4 3.8 6.5 3.8 6.8 0 .2 3.4 6.2 7.6 13.2l7.5 12.7 185-.1H535l2-3.2c1.1-1.8 5.5-9.5 9.9-17 4.3-7.6 8.8-15.4 9.9-17.3 1.1-1.9 3.3-5.8 4.7-8.5 1.5-2.8 3.2-5.7 3.9-6.5.6-.8 1.6-2.4 2.2-3.5.6-1.1 12.3-21.4 25.9-45 13.7-23.7 29-50.3 34.2-59.2 5.1-8.9 10.2-17.7 11.3-19.5 1.1-1.8 2.3-3.9 2.7-4.7.4-.8 4.2-7.6 8.6-15 4.4-7.5 8.9-15.4 10.2-17.6 2.9-5.4 35.2-61.1 37.7-65.3l2-3.2H442l-3.4 6.7c-12.5 24.7-35.4 42.2-63.4 48.3-6.7 1.5-11.4 1.9-20.7 1.5-6.6-.2-13.5-.7-15.4-1-11.7-2.3-28.5-10-38.1-17.5-16.1-12.5-27.5-29.5-33.2-49.5-3.2-11.5-3.2-35.3 0-47 4.3-15.5 15.1-33.7 25.9-43.6 10-9.2 24.6-17.5 38-21.4 12-3.6 30.9-4.3 43.3-1.5 19.1 4.1 32.9 11.6 46.3 24.8 6.9 6.7 16.2 19.7 18.7 25.9l1.2 3.3h128.9c70.9 0 128.9-.2 128.9-.4s-2.2-4.1-4.8-8.7c-5.1-8.7-42.8-74-59.4-102.9-5.3-9.1-10.6-18.4-11.9-20.6-4-6.8-19.3-33.3-20.4-35.2-.6-.9-2.3-4-3.8-6.7-1.5-2.8-3.6-6.4-4.6-8-1.7-2.8-49.4-85.5-53.1-92-.9-1.7-2.7-4.6-3.8-6.5l-2.2-3.5H164.9l-9.8 17z"/></svg>